<?xml version="1.0" standalone="no"?>
<!DOCTYPE svg PUBLIC "-//W3C//DTD SVG 20010904//EN"
 "http://www.w3.org/TR/2001/REC-SVG-20010904/DTD/svg10.dtd">
<svg version="1.0" xmlns="http://www.w3.org/2000/svg"
 width="100.000000pt" height="100.000000pt" viewBox="0 0 100.000000 100.000000"
 preserveAspectRatio="xMidYMid meet">
<metadata>
Created by potrace 1.11, written by Peter Selinger 2001-2013
</metadata>
<g transform="translate(0.000000,100.000000) scale(0.100000,-0.100000)"
fill="#000000" stroke="none">
<path d="M192 904 c-5 -11 -35 -86 -67 -169 -31 -82 -67 -160 -78 -172 l-20
-23 54 1 c35 0 47 3 35 8 -30 11 -34 40 -15 90 l17 46 63 0 62 0 24 -55 25
-54 -22 -18 c-22 -18 -21 -18 46 -18 50 1 64 3 52 10 -9 6 -47 88 -84 183 -37
94 -70 176 -75 181 -4 4 -12 0 -17 -10z m43 -202 c-8 -9 -105 -9 -105 -1 0 5
9 34 21 66 11 32 23 65 26 73 3 9 17 -16 34 -59 17 -40 27 -76 24 -79z"/>
<path d="M478 583 c-22 -6 -34 -49 -19 -67 8 -10 5 -18 -14 -36 -46 -43 -25
-111 41 -129 90 -25 173 38 138 104 -8 15 -13 28 -12 29 44 16 63 35 63 61 0
15 -6 29 -13 31 -7 1 -8 0 -2 -3 5 -2 10 -13 10 -23 0 -13 -14 -23 -47 -35
-104 -36 -115 -43 -111 -72 2 -14 10 -28 18 -30 12 -4 13 -3 1 5 -21 15 -6 40
31 50 41 11 58 -1 58 -39 0 -74 -156 -77 -174 -3 -10 39 17 76 49 68 16 -4 25
-2 25 6 0 6 -5 8 -10 5 -14 -9 -40 13 -40 33 0 8 7 24 17 34 9 10 14 17 12 17
-2 -1 -12 -3 -21 -6z"/>
<path d="M516 584 c6 -3 9 -16 6 -29 -3 -20 -1 -24 12 -19 9 3 16 12 16 18 0
15 -21 36 -34 35 -7 0 -7 -2 0 -5z"/>
<path d="M601 577 c-11 -14 -6 -27 10 -27 5 0 13 9 19 20 8 16 8 20 -3 20 -8
0 -20 -6 -26 -13z"/>
<path d="M763 469 c-12 -30 -43 -108 -68 -174 -26 -66 -56 -130 -66 -141 l-20
-21 51 0 c47 0 49 1 30 14 -24 17 -25 40 -4 91 l15 39 66 -1 65 -1 19 -50 c24
-63 24 -70 -3 -82 -18 -8 -9 -10 44 -9 67 0 67 0 49 21 -10 11 -39 74 -64 140
-25 66 -56 144 -69 174 l-23 53 -22 -53z m53 -154 c6 -24 5 -25 -51 -25 -42 0
-56 3 -52 13 2 6 15 41 28 76 l23 65 23 -52 c12 -29 25 -63 29 -77z"/>
<path d="M557 443 c-4 -3 -2 -12 4 -20 9 -10 8 -13 -1 -13 -8 0 -10 -3 -7 -6
9 -9 37 15 37 32 0 14 -22 19 -33 7z"/>
</g>
</svg>
